<svg width="52" height="50" viewBox="0 0 52 50" fill="none" xmlns="http://www.w3.org/2000/svg">
<path d="M31.2267 24.6632C30.5962 24.6059 29.9656 24.8352 29.5643 25.2365L28.3032 26.4976C28.1886 26.3256 28.0739 26.1536 27.902 25.9817C27.5007 25.5804 27.0421 25.4084 26.4689 25.4084C25.953 25.4084 25.4944 25.6377 25.0931 26.039L22.5136 28.6185C22.3416 28.3892 22.055 28.1026 21.7684 27.816C20.5073 26.5549 18.9596 25.6377 17.2399 25.0645C17.0106 25.0072 16.724 25.0645 16.552 25.2365L9.32932 32.5165C8.98538 32.8604 8.41215 32.8604 8.06821 32.5165C7.89625 32.3445 7.7816 32.1152 7.7816 31.8859C7.7816 31.6566 7.89625 31.4273 8.06821 31.2554L13.6285 25.695C13.8005 25.5231 13.8578 25.1791 13.7432 24.9498C13.6285 24.7206 13.3419 24.5486 13.1126 24.5486C10.4185 24.7779 7.83892 25.9243 5.88994 27.8733C1.47607 32.2872 1.47607 39.5099 5.94726 43.9811C8.12554 46.1594 10.9917 47.2485 13.8578 47.2485C16.7813 47.2485 19.7048 46.1594 21.9404 43.9238C23.832 42.0321 24.9212 39.3952 25.1505 36.4144L32.9464 28.6185C33.7489 27.7587 33.6916 26.2683 32.8318 25.3511C32.3732 24.9498 31.7999 24.7206 31.2267 24.6632ZM31.9719 27.7013L24.004 35.6692C23.8894 35.7839 23.832 35.9559 23.832 36.0705C23.6601 38.822 22.6856 41.2869 20.9659 43.0066C17.0679 46.9046 10.7051 46.9619 6.86443 43.0639C2.90914 39.1086 2.90914 32.7458 6.80711 28.7905C8.06821 27.5294 9.55861 26.6695 11.221 26.1536L7.09372 30.2809C6.69246 30.7395 6.46317 31.3127 6.46317 31.8859C6.46317 32.4592 6.69246 33.0324 7.09372 33.4336C7.95357 34.2935 9.38664 34.2935 10.1892 33.4336L17.1826 26.4402C18.5583 26.9561 19.7621 27.7013 20.7939 28.7332C21.1952 29.1344 21.5964 29.593 21.7111 29.765C21.7111 29.8796 21.7684 29.9943 21.8831 30.1089C22.1124 30.3382 22.5709 30.3382 22.8002 30.1089L25.953 26.9561C26.0676 26.8415 26.2969 26.7269 26.4689 26.7269C26.5835 26.7269 26.7555 26.7269 26.9275 26.8988C27.2141 27.1854 27.0995 27.5867 26.8702 27.8733C26.6409 28.1026 26.6409 28.5612 26.8702 28.7905C27.0995 29.0198 27.558 29.0198 27.7873 28.7905L30.3669 26.2109C30.5962 26.039 30.8828 25.9817 30.9974 25.9817C31.284 25.9817 31.5707 26.0963 31.7426 26.3256C32.2585 26.6695 32.3158 27.3574 31.9719 27.7013ZM50.7165 15.5489C49.6274 14.4597 47.7931 14.4597 46.7039 15.5489L38.6787 23.6314C38.1628 24.1473 37.2456 24.1473 36.7297 23.6314C36.4431 23.3448 36.3285 23.0009 36.3285 22.6569C36.3285 22.2557 36.5004 21.9117 36.7297 21.6824L40.1118 18.3004C41.4302 16.9819 41.4302 14.861 40.1118 13.5426C38.7933 12.2241 36.6724 12.2241 35.354 13.5426L27.0995 21.7398C26.8702 21.969 26.4689 21.969 26.2396 21.7398C26.0103 21.5105 26.0103 21.1092 26.2396 20.8799L32.8318 14.2878C33.7489 13.3706 33.7489 11.9375 32.8318 11.0203C31.9146 10.1032 30.4815 10.1032 29.5643 11.0203L23.8894 16.6953C23.4881 17.0966 22.8576 17.0966 22.4563 16.6953C22.2843 16.5234 22.1697 16.2367 22.1697 16.0075C22.1697 15.7208 22.2843 15.4915 22.4563 15.3196L32.9464 4.82946C33.4623 4.31356 33.8062 3.56836 33.8062 2.82316C33.8062 2.07796 33.5196 1.33276 32.9464 0.816853C31.8573 -0.272284 30.0229 -0.272284 28.9338 0.816853L4.17025 25.5804C-1.39008 31.1407 -1.39008 40.2551 4.17025 45.8154C6.97908 48.6242 10.6478 50 14.3164 50C17.9851 50 21.6538 48.6242 24.4626 45.8154L50.7739 19.5042C51.2898 18.9882 51.6337 18.2431 51.6337 17.4979C51.5764 16.7527 51.2898 16.0648 50.7165 15.5489ZM49.7994 18.587L23.4881 44.8982C21.0232 47.3631 17.7558 48.7389 14.3164 48.7389C10.8197 48.7389 7.55231 47.3631 5.08742 44.8982C-0.0143311 39.7965 -0.0143311 31.542 5.08742 26.4976L29.851 1.73402C30.1376 1.44741 30.5388 1.27544 30.9401 1.27544C31.3414 1.27544 31.7426 1.44741 32.0292 1.73402C32.6025 2.30725 32.6025 3.28174 32.0292 3.9123L21.5391 14.4024C21.0805 14.861 20.8512 15.4342 20.8512 16.0648C20.8512 16.6953 21.0805 17.2686 21.5391 17.7271C22.4563 18.6443 23.8894 18.6443 24.8065 17.7271L30.4815 12.0522C30.8828 11.6509 31.5133 11.6509 31.9146 12.0522C32.3158 12.4534 32.3158 13.084 31.9146 13.4852L25.3224 19.9627C24.5772 20.7079 24.5772 21.9117 25.3224 22.6569C26.0676 23.4021 27.3287 23.4021 28.0166 22.6569L36.2711 14.4024C37.0737 13.5999 38.3921 13.5999 39.1373 14.4024C39.9398 15.2049 39.9398 16.5234 39.1373 17.2686L35.7552 20.6506C35.2393 21.1665 34.9527 21.8544 34.9527 22.5423C34.9527 23.2875 35.2393 23.918 35.7552 24.4339C36.787 25.4657 38.5641 25.4657 39.5959 24.4339L47.6784 16.2941C48.2516 15.7208 49.2261 15.7208 49.8567 16.2941C50.1433 16.5807 50.3153 16.9819 50.3153 17.3832C50.258 17.9564 50.086 18.3004 49.7994 18.587ZM18.1571 38.2488C17.4119 38.994 17.4119 40.1404 18.1571 40.8856C18.501 41.2296 19.0169 41.4589 19.4755 41.4589C19.9341 41.4589 20.45 41.2869 20.7939 40.8856C21.1379 40.5417 21.3672 40.0831 21.3672 39.5672C21.3672 39.0513 21.1952 38.5927 20.7939 38.2488C20.0487 37.5036 18.8449 37.5036 18.1571 38.2488ZM20.1634 40.2551C19.7621 40.6563 19.1316 40.6563 18.7876 40.2551C18.3864 39.8538 18.3864 39.2233 18.7876 38.8793C19.1889 38.4781 19.8194 38.4781 20.1634 38.8793C20.3353 39.0513 20.45 39.3379 20.45 39.5672C20.45 39.7965 20.3353 40.0831 20.1634 40.2551ZM8.01089 37.3889C7.66695 37.7329 7.43766 38.1915 7.43766 38.7074C7.43766 39.2233 7.60963 39.6819 8.01089 40.0258C8.35483 40.3697 8.87074 40.599 9.32932 40.599C9.7879 40.599 10.3038 40.4271 10.6478 40.0258C11.3929 39.2806 11.3929 38.1341 10.6478 37.3889C9.90255 36.7011 8.69877 36.7011 8.01089 37.3889ZM10.0172 39.3952C9.61594 39.7965 8.98538 39.7965 8.64144 39.3952C8.46948 39.2233 8.35483 38.9367 8.35483 38.7074C8.35483 38.4781 8.46948 38.1915 8.64144 38.0195C8.81341 37.8475 9.10003 37.7329 9.32932 37.7329C9.61594 37.7329 9.84523 37.8475 10.0172 38.0195C10.4185 38.4207 10.4185 39.0513 10.0172 39.3952ZM19.0742 37.2743C19.4182 37.2743 19.7621 37.1596 20.0487 36.873C20.278 36.6437 20.45 36.2998 20.45 35.8985C20.45 35.5546 20.3353 35.2107 20.0487 34.9814C19.5328 34.4655 18.673 34.4655 18.1571 34.9814C17.9278 35.2107 17.7558 35.5546 17.7558 35.8985C17.7558 36.2425 17.8705 36.5864 18.1571 36.873C18.3864 37.1023 18.7303 37.2743 19.0742 37.2743ZM18.7303 35.6119C18.8449 35.4973 18.9596 35.4973 19.0742 35.4973C19.1889 35.4973 19.3035 35.5546 19.4182 35.6119C19.5328 35.7266 19.5328 35.8412 19.5328 35.9559C19.5328 36.0705 19.4755 36.1852 19.4182 36.2998C19.2462 36.4718 18.9596 36.4718 18.7876 36.2998C18.673 36.1852 18.673 36.0705 18.673 35.9559C18.673 35.8412 18.673 35.6692 18.7303 35.6119Z" fill="url(#paint0_linear_3_29)"/>
<defs>
<linearGradient id="paint0_linear_3_29" x1="38.1854" y1="8.2171" x2="0.966725" y2="48.3359" gradientUnits="userSpaceOnUse">
<stop stop-color="#FB007A"/>
<stop offset="1" stop-color="#5A00F5"/>
</linearGradient>
</defs>
</svg>
