<svg width="208" height="50" viewBox="0 0 208 50" fill="none" xmlns="http://www.w3.org/2000/svg">
<g clip-path="url(#clip0_7_37)">
<path d="M31.2267 24.6632C30.5962 24.6059 29.9656 24.8352 29.5643 25.2365L28.3032 26.4976C28.1886 26.3256 28.0739 26.1536 27.902 25.9817C27.5007 25.5804 27.0421 25.4084 26.4689 25.4084C25.953 25.4084 25.4944 25.6377 25.0931 26.039L22.5136 28.6185C22.3416 28.3892 22.055 28.1026 21.7684 27.816C20.5073 26.5549 18.9596 25.6377 17.2399 25.0645C17.0106 25.0072 16.724 25.0645 16.552 25.2365L9.32932 32.5165C8.98538 32.8604 8.41215 32.8604 8.06821 32.5165C7.89625 32.3445 7.7816 32.1152 7.7816 31.8859C7.7816 31.6566 7.89625 31.4273 8.06821 31.2554L13.6285 25.695C13.8005 25.5231 13.8578 25.1791 13.7432 24.9498C13.6285 24.7206 13.3419 24.5486 13.1126 24.5486C10.4185 24.7779 7.83892 25.9243 5.88994 27.8733C1.47607 32.2872 1.47607 39.5099 5.94726 43.9811C8.12554 46.1594 10.9917 47.2485 13.8578 47.2485C16.7813 47.2485 19.7048 46.1594 21.9404 43.9238C23.832 42.0321 24.9212 39.3952 25.1505 36.4144L32.9464 28.6185C33.7489 27.7587 33.6916 26.2683 32.8318 25.3511C32.3732 24.9498 31.7999 24.7206 31.2267 24.6632ZM31.9719 27.7013L24.004 35.6692C23.8894 35.7839 23.832 35.9559 23.832 36.0705C23.6601 38.822 22.6856 41.2869 20.9659 43.0066C17.0679 46.9046 10.7051 46.9619 6.86443 43.0639C2.90914 39.1086 2.90914 32.7458 6.80711 28.7905C8.06821 27.5294 9.55861 26.6695 11.221 26.1536L7.09372 30.2809C6.69246 30.7395 6.46317 31.3127 6.46317 31.8859C6.46317 32.4592 6.69246 33.0324 7.09372 33.4336C7.95357 34.2935 9.38664 34.2935 10.1892 33.4336L17.1826 26.4402C18.5583 26.9561 19.7621 27.7013 20.7939 28.7332C21.1952 29.1344 21.5964 29.593 21.7111 29.765C21.7111 29.8796 21.7684 29.9943 21.8831 30.1089C22.1124 30.3382 22.5709 30.3382 22.8002 30.1089L25.953 26.9561C26.0676 26.8415 26.2969 26.7269 26.4689 26.7269C26.5835 26.7269 26.7555 26.7269 26.9275 26.8988C27.2141 27.1854 27.0995 27.5867 26.8702 27.8733C26.6409 28.1026 26.6409 28.5612 26.8702 28.7905C27.0995 29.0198 27.558 29.0198 27.7873 28.7905L30.3669 26.2109C30.5962 26.039 30.8828 25.9817 30.9974 25.9817C31.284 25.9817 31.5707 26.0963 31.7426 26.3256C32.2585 26.6695 32.3158 27.3574 31.9719 27.7013ZM50.7165 15.5489C49.6274 14.4597 47.7931 14.4597 46.7039 15.5489L38.6787 23.6314C38.1628 24.1473 37.2456 24.1473 36.7297 23.6314C36.4431 23.3448 36.3285 23.0009 36.3285 22.6569C36.3285 22.2557 36.5004 21.9117 36.7297 21.6824L40.1118 18.3004C41.4302 16.9819 41.4302 14.861 40.1118 13.5426C38.7934 12.2241 36.6724 12.2241 35.354 13.5426L27.0995 21.7398C26.8702 21.969 26.4689 21.969 26.2396 21.7398C26.0103 21.5105 26.0103 21.1092 26.2396 20.8799L32.8318 14.2878C33.7489 13.3706 33.7489 11.9375 32.8318 11.0203C31.9146 10.1032 30.4815 10.1032 29.5643 11.0203L23.8894 16.6953C23.4881 17.0966 22.8576 17.0966 22.4563 16.6953C22.2843 16.5234 22.1697 16.2367 22.1697 16.0075C22.1697 15.7208 22.2843 15.4915 22.4563 15.3196L32.9464 4.82946C33.4623 4.31356 33.8062 3.56836 33.8062 2.82316C33.8062 2.07796 33.5196 1.33276 32.9464 0.816853C31.8573 -0.272284 30.0229 -0.272284 28.9338 0.816853L4.17025 25.5804C-1.39008 31.1407 -1.39008 40.2551 4.17025 45.8154C6.97908 48.6242 10.6477 50 14.3164 50C17.9851 50 21.6538 48.6242 24.4626 45.8154L50.7739 19.5042C51.2898 18.9882 51.6337 18.243 51.6337 17.4979C51.5764 16.7527 51.2898 16.0648 50.7165 15.5489ZM49.7994 18.587L23.4881 44.8983C21.0232 47.3631 17.7558 48.7389 14.3164 48.7389C10.8197 48.7389 7.55231 47.3631 5.08742 44.8983C-0.0143311 39.7965 -0.0143311 31.542 5.08742 26.4976L29.851 1.73402C30.1376 1.44741 30.5388 1.27544 30.9401 1.27544C31.3414 1.27544 31.7426 1.44741 32.0292 1.73402C32.6025 2.30725 32.6025 3.28174 32.0292 3.9123L21.5391 14.4024C21.0805 14.861 20.8512 15.4342 20.8512 16.0648C20.8512 16.6953 21.0805 17.2686 21.5391 17.7271C22.4563 18.6443 23.8894 18.6443 24.8065 17.7271L30.4815 12.0522C30.8828 11.6509 31.5133 11.6509 31.9146 12.0522C32.3158 12.4534 32.3158 13.084 31.9146 13.4852L25.3224 19.9627C24.5772 20.7079 24.5772 21.9117 25.3224 22.6569C26.0676 23.4021 27.3287 23.4021 28.0166 22.6569L36.2711 14.4024C37.0737 13.5999 38.3921 13.5999 39.1373 14.4024C39.9398 15.2049 39.9398 16.5234 39.1373 17.2686L35.7552 20.6506C35.2393 21.1665 34.9527 21.8544 34.9527 22.5423C34.9527 23.2875 35.2393 23.918 35.7552 24.4339C36.787 25.4657 38.5641 25.4657 39.5959 24.4339L47.6784 16.2941C48.2516 15.7208 49.2261 15.7208 49.8567 16.2941C50.1433 16.5807 50.3153 16.9819 50.3153 17.3832C50.258 17.9564 50.086 18.3004 49.7994 18.587ZM18.1571 38.2488C17.4119 38.994 17.4119 40.1404 18.1571 40.8856C18.501 41.2296 19.0169 41.4589 19.4755 41.4589C19.9341 41.4589 20.45 41.2869 20.7939 40.8856C21.1379 40.5417 21.3672 40.0831 21.3672 39.5672C21.3672 39.0513 21.1952 38.5927 20.7939 38.2488C20.0487 37.5036 18.8449 37.5036 18.1571 38.2488ZM20.1634 40.2551C19.7621 40.6563 19.1316 40.6563 18.7876 40.2551C18.3864 39.8538 18.3864 39.2233 18.7876 38.8793C19.1889 38.4781 19.8194 38.4781 20.1634 38.8793C20.3353 39.0513 20.45 39.3379 20.45 39.5672C20.45 39.7965 20.3353 40.0831 20.1634 40.2551ZM8.01089 37.3889C7.66695 37.7329 7.43766 38.1915 7.43766 38.7074C7.43766 39.2233 7.60963 39.6819 8.01089 40.0258C8.35483 40.3697 8.87074 40.599 9.32932 40.599C9.7879 40.599 10.3038 40.4271 10.6478 40.0258C11.393 39.2806 11.393 38.1341 10.6478 37.3889C9.90255 36.7011 8.69877 36.7011 8.01089 37.3889ZM10.0172 39.3952C9.61594 39.7965 8.98538 39.7965 8.64144 39.3952C8.46948 39.2233 8.35483 38.9367 8.35483 38.7074C8.35483 38.4781 8.46948 38.1915 8.64144 38.0195C8.81341 37.8475 9.10003 37.7329 9.32932 37.7329C9.61594 37.7329 9.84523 37.8475 10.0172 38.0195C10.4185 38.4207 10.4185 39.0513 10.0172 39.3952ZM19.0742 37.2743C19.4182 37.2743 19.7621 37.1596 20.0487 36.873C20.278 36.6437 20.45 36.2998 20.45 35.8985C20.45 35.5546 20.3353 35.2107 20.0487 34.9814C19.5328 34.4655 18.673 34.4655 18.1571 34.9814C17.9278 35.2107 17.7558 35.5546 17.7558 35.8985C17.7558 36.2425 17.8705 36.5864 18.1571 36.873C18.3864 37.1023 18.7303 37.2743 19.0742 37.2743ZM18.7303 35.6119C18.8449 35.4973 18.9596 35.4973 19.0742 35.4973C19.1889 35.4973 19.3035 35.5546 19.4182 35.6119C19.5328 35.7266 19.5328 35.8412 19.5328 35.9559C19.5328 36.0705 19.4755 36.1852 19.4182 36.2998C19.2462 36.4718 18.9596 36.4718 18.7876 36.2998C18.673 36.1852 18.673 36.0705 18.673 35.9559C18.673 35.8412 18.673 35.6692 18.7303 35.6119Z" fill="url(#paint0_linear_7_37)"/>
<path d="M80.7718 22.8806V33.7613C78.4996 34.6253 75.6514 35.1054 73.2193 35.1054C66.9789 35.1054 62.7866 31.3611 62.7866 25.1847C62.7866 18.4323 67.8109 15.136 73.9553 15.136C74.3714 15.136 74.8194 15.136 75.3314 15.168C75.8115 15.2001 76.3235 15.2641 76.8675 15.2961C77.8596 15.4241 78.8517 15.5521 79.8117 15.8401V20.7364C79.4597 20.5764 79.0757 20.4484 78.6276 20.3204C78.1476 20.2244 77.6676 20.1284 77.1555 20.0324C76.1315 19.8404 75.0434 19.7764 73.9873 19.7764C69.9231 19.7764 67.5869 21.0244 67.5869 25.1847C67.5869 29.249 69.7311 30.4651 73.3793 30.4651C73.7633 30.4651 74.1793 30.4331 74.6274 30.4011C75.0434 30.3691 75.4914 30.3371 75.9715 30.3051V27.3289H71.8112V22.8806H80.7718ZM95.1335 30.5931C98.6218 30.5931 100.414 28.3529 100.414 25.0887C100.414 21.6325 98.4938 19.5843 95.1335 19.5843C91.6133 19.5843 89.8532 21.8245 89.8532 25.0887C89.8532 28.4809 91.8053 30.5931 95.1335 30.5931ZM95.1335 35.0414C89.1171 35.0414 85.0529 30.9451 85.0529 25.0887C85.0529 19.0403 89.3091 15.136 95.1335 15.136C101.182 15.136 105.214 19.2003 105.214 25.0887C105.214 31.1691 100.99 35.0414 95.1335 35.0414ZM109.143 34.4013V29.889C109.527 29.985 110.007 30.081 110.551 30.145C111.095 30.2411 111.671 30.3051 112.279 30.3371C112.888 30.3691 113.496 30.4011 114.136 30.4331C114.776 30.4651 115.384 30.4971 115.928 30.4971C117.432 30.4971 118.488 30.4011 119.128 30.241C119.736 30.081 120.056 29.793 120.056 29.345C120.056 28.961 119.768 28.6729 119.48 28.4489C118.424 27.7449 117.176 27.4569 115.928 27.1688C112.407 26.4648 109.175 25.0567 109.175 21.0244C109.175 16.2561 113.688 15.136 117.56 15.136C119.704 15.136 121.88 15.3601 123.96 15.8721V20.3844C123.64 20.2884 123.224 20.2244 122.712 20.1284C122.168 20.0644 121.624 20.0004 121.016 19.9364C119.768 19.8084 118.584 19.7444 117.336 19.7444C116.632 19.7444 115.16 19.7444 114.488 20.0004C114.04 20.1604 113.752 20.3524 113.752 20.8644C113.752 21.1204 113.816 21.3445 113.944 21.5365C114.072 21.7605 114.296 21.9205 114.584 22.0805C115.448 22.5605 116.568 22.8486 117.528 23.0726C118.328 23.2646 119.128 23.4886 119.96 23.7126C122.776 24.4807 124.632 26.0488 124.632 29.057C124.632 34.0173 119.704 35.0734 115.736 35.0734C113.56 35.0734 111.287 34.9134 109.143 34.4013ZM128.049 15.2961H144.37V19.7444H138.61V34.8814H133.81V19.7444H128.049V15.2961ZM160.908 30.9131H153.708L152.3 34.8814H147.083L154.924 15.2961H159.724L167.565 34.8814H162.316L160.908 30.9131ZM155.276 26.4648H159.34L157.324 20.7684L155.276 26.4648ZM176.23 19.8084V24.4807H180.71C182.183 24.4807 183.047 23.6166 183.047 22.1445C183.047 20.6724 182.183 19.8084 180.71 19.8084H176.23ZM183.495 27.6489C184.391 28.865 185.287 30.081 186.215 31.2651C187.111 32.4492 188.007 33.6653 188.903 34.8814H183.047C181.894 33.3453 180.774 31.8092 179.654 30.2731C178.534 28.769 177.382 27.2329 176.23 25.6967V34.8814H171.43V15.2961H180.71C184.359 15.2961 187.463 18.0802 187.463 21.7605C187.463 24.3527 185.863 26.6248 183.495 27.6489ZM191.872 34.4013V29.889C192.256 29.985 192.736 30.081 193.28 30.145C193.824 30.2411 194.4 30.3051 195.008 30.3371C195.616 30.3691 196.224 30.4011 196.864 30.4331C197.504 30.4651 198.112 30.4971 198.656 30.4971C200.161 30.4971 201.217 30.4011 201.857 30.241C202.465 30.081 202.785 29.793 202.785 29.345C202.785 28.961 202.497 28.6729 202.209 28.4489C201.153 27.7449 199.904 27.4569 198.656 27.1688C195.136 26.4648 191.904 25.0567 191.904 21.0244C191.904 16.2561 196.416 15.136 200.289 15.136C202.433 15.136 204.609 15.3601 206.689 15.8721V20.3844C206.369 20.2884 205.953 20.2244 205.441 20.1284C204.897 20.0644 204.353 20.0004 203.745 19.9364C202.497 19.8084 201.313 19.7444 200.064 19.7444C199.36 19.7444 197.888 19.7444 197.216 20.0004C196.768 20.1604 196.48 20.3524 196.48 20.8644C196.48 21.1204 196.544 21.3445 196.672 21.5365C196.8 21.7605 197.024 21.9205 197.312 22.0805C198.176 22.5605 199.296 22.8486 200.257 23.0726C201.057 23.2646 201.857 23.4886 202.689 23.7126C205.505 24.4807 207.361 26.0488 207.361 29.057C207.361 34.0173 202.433 35.0734 198.464 35.0734C196.288 35.0734 194.016 34.9134 191.872 34.4013Z" fill="url(#paint1_linear_7_37)"/>
</g>
<defs>
<linearGradient id="paint0_linear_7_37" x1="38.1854" y1="8.2171" x2="0.966725" y2="48.3359" gradientUnits="userSpaceOnUse">
<stop stop-color="#FB007A"/>
<stop offset="1" stop-color="#5A00F5"/>
</linearGradient>
<linearGradient id="paint1_linear_7_37" x1="62.7866" y1="15.136" x2="207.361" y2="15.136" gradientUnits="userSpaceOnUse">
<stop stop-color="#FB007A"/>
<stop offset="1" stop-color="#5A00F5"/>
</linearGradient>
<clipPath id="clip0_7_37">
<rect width="207.361" height="50" fill="white"/>
</clipPath>
</defs>
</svg>
